<svg width="122" height="57" viewBox="0 0 122 57" fill="none" xmlns="http://www.w3.org/2000/svg">
<rect y="0.907532" width="121.422" height="55.4771" rx="6.28043" fill="#FF9CE9"/>
<path d="M77.3416 18.3369C75.6386 17.7164 73.8383 17.405 72.0258 17.4174C66.164 17.4174 62.0242 20.3702 61.9949 24.609C61.9582 27.723 64.9367 29.4779 67.1898 30.5184C69.5016 31.5881 70.2746 32.2622 70.2673 33.2184C70.2526 34.6729 68.4208 35.3323 66.7172 35.3323C64.3762 35.3323 63.0976 35.0063 61.1303 34.1893L60.4012 33.8486L59.5696 38.7285C60.9947 39.322 63.5629 39.8312 66.2153 39.8752C72.4471 39.8752 76.521 36.9406 76.5686 32.4308C76.6199 29.9432 75.0079 28.0638 71.6155 26.5104C69.5529 25.5029 68.2743 24.8288 68.2743 23.8067C68.2743 22.9018 69.3697 21.9346 71.6594 21.9346C73.1833 21.8977 74.6978 22.1836 76.1033 22.7735L76.6529 23.019L77.4845 18.304L77.3416 18.3369ZM92.5528 17.8131H87.9734C86.5482 17.8131 85.4748 18.2051 84.852 19.6192L76.0447 39.5711H82.2765L83.5221 36.2995L91.1277 36.3068C91.3072 37.0725 91.8568 39.5711 91.8568 39.5711H97.3521L92.5528 17.8131ZM53.565 17.6299H59.5036L55.7888 39.3989H49.8574L53.565 17.6225V17.6299ZM38.4893 29.6281L39.1048 32.6506L44.9079 17.8131H51.1983L41.8525 39.5418H35.5768L30.4478 21.1432C30.3647 20.8399 30.1696 20.5793 29.9019 20.4142C28.0532 19.4592 26.0945 18.7345 24.0695 18.2563L24.1501 17.7984H33.7083C35.0053 17.8497 36.0494 18.2563 36.3974 19.6412L38.4857 29.6391V29.6281H38.4893ZM85.2257 31.8482L87.5924 25.7594C87.563 25.8253 88.0796 24.5028 88.38 23.6858L88.7867 25.5652L90.1605 31.8446H85.222V31.8482H85.2257Z" fill="white"/>
</svg>
