<svg width="21" height="28" viewBox="0 0 21 28" fill="none" xmlns="http://www.w3.org/2000/svg">
<path d="M18.1915 9.93011H16.9137V7.36358C16.9137 3.82178 14.0516 0.947266 10.5251 0.947266C6.99854 0.947266 4.13642 3.82178 4.13642 7.36358V9.93011H2.85869C1.45318 9.93011 0.303223 11.085 0.303223 12.4966V25.3293C0.303223 26.7409 1.45318 27.8958 2.85869 27.8958H18.1915C19.597 27.8958 20.7469 26.7409 20.7469 25.3293V12.4966C20.7469 11.085 19.597 9.93011 18.1915 9.93011ZM10.5251 21.4795C9.11958 21.4795 7.96962 20.3245 7.96962 18.913C7.96962 17.5014 9.11958 16.3464 10.5251 16.3464C11.9306 16.3464 13.0805 17.5014 13.0805 18.913C13.0805 20.3245 11.9306 21.4795 10.5251 21.4795ZM14.4861 9.93011H6.56411V7.36358C6.56411 5.1692 8.34016 3.38547 10.5251 3.38547C12.71 3.38547 14.4861 5.1692 14.4861 7.36358V9.93011Z" fill="white"/>
</svg>
