<svg width="123" height="57" viewBox="0 0 123 57" fill="none" xmlns="http://www.w3.org/2000/svg">
<path opacity="0.5" d="M72.1023 50.6538C67.7496 50.6544 63.4944 49.3643 59.8749 46.9466C56.2554 44.5289 53.4341 41.0922 51.7678 37.0711C50.1015 33.05 49.665 28.625 50.5136 24.3558C51.3621 20.0866 53.4575 16.1649 56.5349 13.0866C59.6123 10.0083 63.5334 7.91173 67.8023 7.06192C72.0712 6.21212 76.4963 6.64729 80.5179 8.3124C84.5396 9.97751 87.9771 12.7978 90.3959 16.4166C92.8147 20.0353 94.106 24.2901 94.1067 28.6428V28.6461C94.1006 34.4805 91.7805 40.0742 87.6552 44.2C83.53 48.3258 77.9366 50.6468 72.1023 50.6538Z" fill="#FF9AE9"/>
<path d="M50.6898 50.6538C46.3371 50.6538 42.0821 49.3631 38.463 46.9448C34.8439 44.5266 32.0231 41.0895 30.3574 37.0681C28.6917 33.0467 28.2558 28.6217 29.105 24.3526C29.9542 20.0835 32.0502 16.1622 35.128 13.0843C38.2059 10.0065 42.1273 7.91047 46.3963 7.0613C50.6654 6.21213 55.0904 6.64796 59.1118 8.31367C63.1332 9.97937 66.5703 12.8002 68.9885 16.4193C71.4068 20.0384 72.6975 24.2934 72.6975 28.6461C72.6914 34.481 70.3708 40.0753 66.2449 44.2012C62.119 48.3271 56.5248 50.6477 50.6898 50.6538Z" fill="#DB68C2"/>
<rect x="1.73033" y="1.95427" width="119.328" height="53.3837" rx="5.23369" stroke="#FF9AE9" stroke-width="2.09348"/>
</svg>
