<svg width="122" height="57" viewBox="0 0 122 57" fill="none" xmlns="http://www.w3.org/2000/svg">
<path d="M50.5384 28.9051C50.5384 29.5438 50.3183 30.0747 49.8781 30.4977C49.4378 30.9206 48.8983 31.1321 48.2596 31.1321C47.7589 31.1321 47.3575 30.994 47.0554 30.7178C46.7533 30.4416 46.6022 30.0617 46.6022 29.5784C46.6022 28.9396 46.818 28.4001 47.2496 27.9599C47.6812 27.5196 48.2164 27.2995 48.8552 27.2995C49.3386 27.2995 49.7399 27.4419 50.0593 27.7268C50.3787 28.0117 50.5384 28.4044 50.5384 28.9051ZM70.8667 25.0466C70.8667 25.7717 70.6768 26.2637 70.2969 26.5226C69.9171 26.7816 69.3474 26.9111 68.5878 26.9111L67.7592 26.937L68.1994 24.1661C68.2339 23.9762 68.3461 23.8813 68.536 23.8813H69.0022C69.382 23.8813 69.6841 23.8985 69.9085 23.9331C70.1329 23.9676 70.3487 24.0755 70.5559 24.2568C70.7631 24.438 70.8667 24.7013 70.8667 25.0466ZM79.9561 28.9051C79.9561 29.5266 79.736 30.0531 79.2958 30.4847C78.8555 30.9163 78.3247 31.1321 77.7032 31.1321C77.2025 31.1321 76.7968 30.994 76.4861 30.7178C76.1753 30.4416 76.0199 30.0617 76.0199 29.5784C76.0199 28.9396 76.2357 28.4001 76.6673 27.9599C77.0989 27.5196 77.6341 27.2995 78.2729 27.2995C78.7563 27.2995 79.1576 27.4419 79.477 27.7268C79.7964 28.0117 79.9561 28.4044 79.9561 28.9051ZM44.5306 24.4769C44.5306 23.4583 44.1982 22.7203 43.5336 22.2628C42.8689 21.8053 42.0014 21.5765 40.931 21.5765H36.7877C36.4597 21.5765 36.2784 21.7405 36.2439 22.0686L34.5606 32.6341C34.5434 32.7377 34.5693 32.8326 34.6383 32.9189C34.7074 33.0052 34.7937 33.0484 34.8973 33.0484H36.8654C37.2107 33.0484 37.4006 32.8844 37.4351 32.5564L37.9012 29.7078C37.9185 29.5697 37.9789 29.4575 38.0825 29.3712C38.1861 29.2849 38.3155 29.2288 38.4709 29.2029C38.6263 29.177 38.773 29.164 38.9111 29.164C39.0493 29.164 39.2133 29.1727 39.4032 29.1899C39.5931 29.2072 39.7139 29.2158 39.7657 29.2158C41.2504 29.2158 42.4157 28.7972 43.2617 27.9599C44.1076 27.1226 44.5306 25.9616 44.5306 24.4769ZM52.5324 32.5564L53.5941 25.7976C53.6114 25.694 53.5855 25.599 53.5164 25.5127C53.4474 25.4264 53.361 25.3832 53.2575 25.3832H51.2894C51.0477 25.3832 50.9009 25.6681 50.8491 26.2378C50.383 25.5472 49.563 25.202 48.389 25.202C47.146 25.202 46.0886 25.6681 45.2168 26.6003C44.345 27.5326 43.9091 28.6288 43.9091 29.8891C43.9091 30.9077 44.2069 31.7191 44.8025 32.3233C45.3981 32.9276 46.1965 33.2297 47.1978 33.2297C47.6812 33.2297 48.1819 33.1261 48.6998 32.9189C49.2177 32.7118 49.632 32.4355 49.9428 32.0903C49.8737 32.2974 49.8392 32.4787 49.8392 32.6341C49.8392 32.9103 49.9514 33.0484 50.1759 33.0484H51.9627C52.2907 33.0484 52.4806 32.8844 52.5324 32.5564ZM64.1078 25.7458C64.1078 25.6594 64.0733 25.5774 64.0042 25.4998C63.9352 25.4221 63.8575 25.3832 63.7712 25.3832H61.7772C61.5873 25.3832 61.4319 25.4695 61.3111 25.6422L58.5661 29.6819L57.4267 25.7976C57.3404 25.5213 57.1505 25.3832 56.857 25.3832H54.9148C54.8285 25.3832 54.7508 25.4221 54.6817 25.4998C54.6127 25.5774 54.5782 25.6594 54.5782 25.7458C54.5782 25.7803 54.7465 26.2896 55.0831 27.2736C55.4198 28.2577 55.7823 29.3194 56.1707 30.4588C56.5592 31.5982 56.762 32.2025 56.7793 32.2715C55.3637 34.2051 54.6558 35.2409 54.6558 35.379C54.6558 35.6035 54.7681 35.7157 54.9925 35.7157H56.9865C57.1764 35.7157 57.3317 35.6294 57.4526 35.4567L64.056 25.927C64.0906 25.8925 64.1078 25.8321 64.1078 25.7458ZM73.9483 24.4769C73.9483 23.4583 73.6159 22.7203 72.9513 22.2628C72.2866 21.8053 71.4191 21.5765 70.3487 21.5765H66.2313C65.886 21.5765 65.6961 21.7405 65.6616 22.0686L63.9784 32.6341C63.9611 32.7377 63.987 32.8326 64.056 32.9189C64.1251 33.0052 64.2114 33.0484 64.315 33.0484H66.4385C66.6456 33.0484 66.7837 32.9362 66.8528 32.7118L67.3189 29.7078C67.3362 29.5697 67.3966 29.4575 67.5002 29.3712C67.6038 29.2849 67.7333 29.2288 67.8886 29.2029C68.044 29.177 68.1907 29.164 68.3289 29.164C68.467 29.164 68.631 29.1727 68.8209 29.1899C69.0108 29.2072 69.1316 29.2158 69.1834 29.2158C70.6681 29.2158 71.8334 28.7972 72.6794 27.9599C73.5253 27.1226 73.9483 25.9616 73.9483 24.4769ZM81.9501 32.5564L83.0118 25.7976C83.0291 25.694 83.0032 25.599 82.9341 25.5127C82.8651 25.4264 82.7788 25.3832 82.6752 25.3832H80.7071C80.4654 25.3832 80.3186 25.6681 80.2669 26.2378C79.818 25.5472 78.998 25.202 77.8067 25.202C76.5637 25.202 75.5063 25.6681 74.6345 26.6003C73.7627 27.5326 73.3268 28.6288 73.3268 29.8891C73.3268 30.9077 73.6246 31.7191 74.2202 32.3233C74.8158 32.9276 75.6142 33.2297 76.6155 33.2297C77.1162 33.2297 77.6255 33.1261 78.1434 32.9189C78.6613 32.7118 79.067 32.4355 79.3605 32.0903C79.3605 32.1075 79.3432 32.1852 79.3087 32.3233C79.2742 32.4614 79.2569 32.565 79.2569 32.6341C79.2569 32.9103 79.3691 33.0484 79.5936 33.0484H81.3804C81.7084 33.0484 81.8983 32.8844 81.9501 32.5564ZM87.5954 21.965V21.9391C87.5954 21.6974 87.4832 21.5765 87.2587 21.5765H85.3424C85.1525 21.5765 85.0403 21.6715 85.0058 21.8614L83.3226 32.6341L83.2967 32.6859C83.2967 32.7722 83.3312 32.8542 83.4003 32.9319C83.4693 33.0096 83.5556 33.0484 83.6592 33.0484H85.3683C85.6964 33.0484 85.8776 32.8844 85.9122 32.5564L87.5954 21.965ZM41.3972 25.435C41.3108 26.0393 41.0864 26.4363 40.7239 26.6262C40.3613 26.8161 39.8434 26.9111 39.1701 26.9111L38.3155 26.937L38.7558 24.1661C38.7903 23.9762 38.9025 23.8813 39.0924 23.8813H39.5844C40.275 23.8813 40.7757 23.9805 41.0864 24.1791C41.3972 24.3776 41.5007 24.7963 41.3972 25.435ZM90.9101 12.0727V45.2195C90.9101 46.1172 90.582 46.8941 89.926 47.5501C89.27 48.2061 88.4931 48.5341 87.5954 48.5341H34.5606C33.6629 48.5341 32.886 48.2061 32.23 47.5501C31.574 46.8941 31.246 46.1172 31.246 45.2195V12.0727C31.246 11.175 31.574 10.3981 32.23 9.74212C32.886 9.08609 33.6629 8.75808 34.5606 8.75808H87.5954C88.4931 8.75808 89.27 9.08609 89.926 9.74212C90.582 10.3981 90.9101 11.175 90.9101 12.0727Z" fill="#DB68C2"/>
<rect x="1.41393" y="1.95427" width="119.328" height="53.3837" rx="5.23369" stroke="#FF9AE9" stroke-width="2.09348"/>
</svg>
